# xmcd
#
# Track frame offsets:
#	170
#	18155
#	32155
#	53045
#	68922
#	84350
#	102987
#	121817
#	133277
#	146702
#	159595
#	176352
#
# Disc length: 2547 seconds
#
# Revision: 1
# Processed by: cddbd v1.4PL0 Copyright (c) Steve Scherf et al.
# Submitted via: EasyCDDAExtractor 5.0.6
#
DISCID=9d09f10c
DTITLE=Charles Brown - Driftin' Blues
DYEAR=1989
DGENRE=Blues
TTITLE0=Driftin'
TTITLE1=Our Day Will Come
TTITLE2=Go Away Little Girl
TTITLE3=Days Of Wine And Roses
TTITLE4=My Silent Love
TTITLE5=Throught The Courtesy Of Love
TTITLE6=Since I Fell For You
TTITLE7=More (Theme From Mondo Cane)
TTITLE8=So Long
TTITLE9=You Are My First Love
TTITLE10=To You My Love
TTITLE11=Not In My Wildest Dreams
EXTD=
EXTT0=
EXTT1=
EXTT2=
EXTT3=
EXTT4=
EXTT5=
EXTT6=
EXTT7=
EXTT8=
EXTT9=
EXTT10=
EXTT11=
PLAYORDER=
